<?xml version="1.0" standalone="no"?>
<!DOCTYPE svg PUBLIC "-//W3C//DTD SVG 20010904//EN"
 "http://www.w3.org/TR/2001/REC-SVG-20010904/DTD/svg10.dtd">
<svg version="1.0" xmlns="http://www.w3.org/2000/svg"
 width="512.000000pt" height="512.000000pt" viewBox="0 0 512.000000 512.000000"
 preserveAspectRatio="xMidYMid meet">
<metadata>
Created by potrace 1.14, written by Peter Selinger 2001-2017
</metadata>
<g transform="translate(0.000000,512.000000) scale(0.100000,-0.100000)"
fill="#000000" stroke="none">
<path d="M1223 4886 c-160 -39 -278 -146 -343 -311 l-24 -60 -2 -1295 c-2
-1088 0 -1305 12 -1359 41 -184 193 -331 379 -366 48 -9 482 -12 1767 -10
1899 2 1749 -4 1874 71 106 64 170 143 211 264 l23 65 -3 1320 -2 1320 -30 74
c-38 93 -127 193 -213 239 -123 66 -2 62 -1886 61 -1335 0 -1722 -3 -1763 -13z"/>
<path d="M406 2998 c-65 -216 -122 -406 -126 -423 -5 -16 -68 -226 -140 -465
-122 -401 -133 -442 -135 -524 -4 -142 33 -239 131 -345 72 -78 155 -119 334
-166 74 -19 169 -44 210 -56 41 -11 82 -22 91 -24 10 -2 68 -18 130 -35 111
-31 330 -89 359 -95 8 -2 116 -31 240 -64 124 -34 250 -68 280 -76 30 -8 87
-23 125 -34 39 -10 84 -22 100 -27 17 -4 32 -8 35 -9 25 -7 253 -69 600 -161
179 -47 366 -97 415 -111 50 -14 97 -26 106 -28 10 -2 68 -18 130 -35 63 -18
121 -33 129 -35 8 -2 78 -20 154 -40 182 -47 266 -48 376 -5 103 41 195 119
243 209 15 26 72 192 127 367 55 175 103 326 105 335 5 14 -136 16 -1537 16
-849 0 -1572 2 -1608 3 -293 14 -585 229 -691 509 -54 143 -55 167 -55 968 1
409 -2 743 -5 743 -3 0 -58 -177 -123 -392z"/>
</g>
</svg>
